<svg width="31" height="32" viewBox="0 0 31 32" fill="none" xmlns="http://www.w3.org/2000/svg">
    <path d="M20.0258 29.3333V24.1733C20.0728 23.5375 19.9921 22.8984 19.7893 22.2984C19.5864 21.6984 19.266 21.1512 18.8493 20.6933C22.7794 20.2267 26.9097 18.64 26.9097 11.36C26.9094 9.49843 26.2372 7.70826 25.0323 6.36C25.6028 4.73134 25.5625 2.93113 24.9196 1.33333C24.9196 1.33333 23.4427 0.866665 20.0258 3.30666C17.1571 2.47843 14.1332 2.47843 11.2645 3.30666C7.84761 0.866665 6.37071 1.33333 6.37071 1.33333C5.72785 2.93113 5.68751 4.73134 6.25807 6.36C5.04416 7.71826 4.37129 9.52462 4.38065 11.4C4.38065 18.6267 8.51097 20.2133 12.441 20.7333C12.0292 21.1866 11.7117 21.7272 11.509 22.3199C11.3063 22.9126 11.223 23.5441 11.2645 24.1733V29.3333M11.2645 25.3333C5.00645 27.3333 5.00645 22 2.50323 21.3333L11.2645 25.3333Z" stroke="#ff9a71" stroke-width="1.5" stroke-linecap="round" stroke-linejoin="round" />
</svg>
