<svg width="31" height="32" viewBox="0 0 30 32" fill="none" xmlns="http://www.w3.org/2000/svg">
    <path d="M21.25 2.66666H8.75C5.29822 2.66666 2.5 5.65142 2.5 9.33332V22.6667C2.5 26.3486 5.29822 29.3333 8.75 29.3333H21.25C24.7018 29.3333 27.5 26.3486 27.5 22.6667V9.33332C27.5 5.65142 24.7018 2.66666 21.25 2.66666Z" stroke="#ff9a71" stroke-width="1.5" stroke-linecap="round" stroke-linejoin="round" />
    <path d="M20 15.16C20.1543 16.2697 19.9766 17.403 19.4922 18.3987C19.0078 19.3944 18.2414 20.2019 17.302 20.7062C16.3626 21.2106 15.2981 21.3861 14.2597 21.2079C13.2214 21.0297 12.2622 20.5068 11.5185 19.7136C10.7749 18.9203 10.2847 17.8972 10.1176 16.7896C9.9505 15.6821 10.1151 14.5465 10.5879 13.5445C11.0607 12.5425 11.8177 11.725 12.7512 11.2083C13.6847 10.6917 14.7472 10.5021 15.7875 10.6667C16.8487 10.8345 17.8311 11.362 18.5896 12.1711C19.3482 12.9802 19.8426 14.0281 20 15.16Z" stroke="#ff9a71" stroke-width="1.5" stroke-linecap="round" stroke-linejoin="round" />
    <path d="M21.875 8.66666H21.8875" stroke="#ff9a71" stroke-width="2" stroke-linecap="round" stroke-linejoin="round" />
</svg>
    