<svg width="31" height="32" viewBox="0 0 31 32" fill="none" xmlns="http://www.w3.org/2000/svg">
    <path
        d="M20.1677 10.6667C22.1594 10.6667 24.0696 11.5095 25.4779 13.0098C26.8862 14.5101 27.6774 16.5449 27.6774 18.6667V28H22.671V18.6667C22.671 17.9594 22.4072 17.2811 21.9378 16.781C21.4683 16.2809 20.8316 16 20.1677 16C19.5038 16 18.8671 16.2809 18.3977 16.781C17.9282 17.2811 17.6645 17.9594 17.6645 18.6667V28H12.6581V18.6667C12.6581 16.5449 13.4493 14.5101 14.8576 13.0098C16.2659 11.5095 18.1761 10.6667 20.1677 10.6667V10.6667Z"
        stroke="#ff9a71" stroke-width="1.5" stroke-linecap="round" stroke-linejoin="round" />
    <path d="M7.65161 12H2.64516V28H7.65161V12Z" stroke="#ff9a71" stroke-width="1.5"
        stroke-linecap="round" stroke-linejoin="round" />
    <path
        d="M5.14839 7.99999C6.53088 7.99999 7.65161 6.80608 7.65161 5.33332C7.65161 3.86056 6.53088 2.66666 5.14839 2.66666C3.76589 2.66666 2.64516 3.86056 2.64516 5.33332C2.64516 6.80608 3.76589 7.99999 5.14839 7.99999Z"
        stroke="#ff9a71" stroke-width="1.5" stroke-linecap="round" stroke-linejoin="round" />
</svg>
    