<svg width="31" height="32" viewBox="0 0 31 32" fill="none" xmlns="http://www.w3.org/2000/svg" class="icon">
    <g clip-path="url(#clip0_2_3)">
        <path d="M28.8581 4.00001C27.6595 4.90065 26.3324 5.58949 24.928 6.04001C24.1742 5.11669 23.1724 4.46227 22.0581 4.16525C20.9438 3.86822 19.7707 3.94294 18.6976 4.37928C17.6244 4.81563 16.703 5.59255 16.0578 6.60497C15.4126 7.61739 15.0749 8.81646 15.0903 10.04V11.3733C12.8908 11.4341 10.7113 10.9144 8.74591 9.86061C6.78055 8.80678 5.09033 7.25152 3.82581 5.33334C3.82581 5.33334 -1.18064 17.3333 10.0839 22.6667C7.50621 24.5306 4.43554 25.4652 1.32258 25.3333C12.5871 32 26.3548 25.3333 26.3548 10C26.3537 9.62862 26.3202 9.25814 26.2547 8.89334C27.5321 7.55133 28.4336 5.85696 28.8581 4.00001V4.00001Z" stroke="#ff9a71" stroke-width="1.5" stroke-linecap="round" stroke-linejoin="round" />
    </g>
    <defs>
        <clipPath id="clip0_2_3">
            <rect width="30.0387" height="32" fill="white" transform="translate(0.0709686)" />
        </clipPath>
    </defs>
</svg>
    